<svg width="256" height="246" viewBox="0 0 256 246" fill="none" xmlns="http://www.w3.org/2000/svg">
<rect width="256" height="245.333" rx="20" fill="#8A75F0"/>
<path fill-rule="evenodd" clip-rule="evenodd" d="M225.812 136.007C225.826 130.479 215.512 128.429 212.285 132.917C197.057 154.097 173.296 168.528 148.147 161.789C112.672 152.284 91.6189 115.819 101.125 80.3439C106.512 60.236 129.791 45.8237 153.665 38.6409C160.713 36.5204 160.991 28.3125 153.882 26.4075V26.4075C100.535 12.1134 45.7016 43.7716 31.4075 97.1182C17.1133 150.465 48.7715 205.299 102.118 219.593C155.465 233.887 210.298 202.229 224.593 148.882C225.486 145.547 225.798 140.968 225.812 136.007Z" fill="#0C0B0E"/>
</svg>
