<svg width="256" height="246" viewBox="0 0 256 246" fill="none" xmlns="http://www.w3.org/2000/svg">
<rect width="256" height="245.333" rx="20" fill="#8A75F0"/>
<path d="M116.966 38.2992C123.656 33.8734 132.344 33.8734 139.034 38.2992L199.034 77.9894C204.633 81.6927 208 87.9576 208 94.67V195.376C208 206.421 199.046 215.376 188 215.376H175.192C164.146 215.376 155.192 206.421 155.192 195.376L155.192 155C155.192 143.954 146.238 135 135.192 135H123.567C112.521 135 103.567 143.954 103.567 155L103.567 195.376C103.567 206.421 94.6122 215.376 83.5665 215.376H68C56.9543 215.376 48 206.421 48 195.376V94.67C48 87.9576 51.3673 81.6928 56.9657 77.9894L116.966 38.2992Z" fill="#0C0B0E"/>
</svg>
